HIERARCHY
ROOT Hips
{
	OFFSET 0.000000 0.000000 0.000000
	CHANNELS 6 Xposition Yposition Zposition Xrotation Yrotation Zrotation
	JOINT Chest
	{
		OFFSET 0.000000 9.581000 -0.001100
		CHANNELS 3 Xrotation Yrotation Zrotation
		JOINT Chest2
		{
			OFFSET 0.000000 9.561100 0.002200
			CHANNELS 3 Xrotation Yrotation Zrotation
			JOINT Chest3
			{
				OFFSET 0.000000 9.521100 0.000000
				CHANNELS 3 Xrotation Yrotation Zrotation
				JOINT Chest4
				{
					OFFSET 0.000000 9.511400 0.000000
					CHANNELS 3 Xrotation Yrotation Zrotation
					JOINT Neck
					{
						OFFSET 0.000000 14.375100 0.000000
						CHANNELS 3 Xrotation Yrotation Zrotation
						JOINT Head
						{
							OFFSET 0.000000 8.901200 0.004600
							CHANNELS 3 Xrotation Yrotation Zrotation
							End Site
							{
								OFFSET 0.000000 0.000000 0.000000
							}
						}
					}
					JOINT RightCollar
					{
						OFFSET -2.920100 9.518800 0.000000
						CHANNELS 3 Xrotation Yrotation Zrotation
						JOINT RightShoulder
						{
							OFFSET -13.664500 0.000000 0.000000
							CHANNELS 3 Xrotation Yrotation Zrotation
							JOINT RightElbow
							{
								OFFSET 0.000000 -29.999201 0.000000
								CHANNELS 3 Xrotation Yrotation Zrotation
								JOINT RightWrist
								{
									OFFSET 0.000000 -24.253599 0.000000
									CHANNELS 3 Xrotation Yrotation Zrotation
									End Site
									{
										OFFSET 0.000000 0.000000 0.000000
									}
								}
							}
						}
					}
					JOINT LeftCollar
					{
						OFFSET 2.920100 9.518800 0.000000
						CHANNELS 3 Xrotation Yrotation Zrotation
						JOINT LeftShoulder
						{
							OFFSET 13.664500 0.000000 0.000000
							CHANNELS 3 Xrotation Yrotation Zrotation
							JOINT LeftElbow
							{
								OFFSET 0.000000 -29.999201 0.000000
								CHANNELS 3 Xrotation Yrotation Zrotation
								JOINT LeftWrist
								{
									OFFSET 0.000000 -24.253599 0.000000
									CHANNELS 3 Xrotation Yrotation Zrotation
									End Site
									{
										OFFSET 0.000000 0.000000 0.000000
									}
								}
							}
						}
					}
				}
			}
		}
	}
	JOINT RightHip
	{
		OFFSET -7.797300 0.005300 0.000500
		CHANNELS 3 Xrotation Yrotation Zrotation
		JOINT RightKnee
		{
			OFFSET 0.000000 -40.663399 -0.000500
			CHANNELS 3 Xrotation Yrotation Zrotation
			JOINT RightAnkle
			{
				OFFSET 0.000000 -39.523701 -0.000900
				CHANNELS 3 Xrotation Yrotation Zrotation
				JOINT RightToe
				{
					OFFSET 0.000000 -6.418000 14.485300
					CHANNELS 3 Xrotation Yrotation Zrotation
					End Site
					{
						OFFSET 0.000000 0.000000 0.000000
					}
				}
			}
		}
	}
	JOINT LeftHip
	{
		OFFSET 7.797300 0.005300 0.000500
		CHANNELS 3 Xrotation Yrotation Zrotation
		JOINT LeftKnee
		{
			OFFSET 0.000000 -40.663399 -0.000500
			CHANNELS 3 Xrotation Yrotation Zrotation
			JOINT LeftAnkle
			{
				OFFSET 0.000000 -39.523701 -0.000900
				CHANNELS 3 Xrotation Yrotation Zrotation
				JOINT LeftToe
				{
					OFFSET 0.000000 -6.418000 14.485300
					CHANNELS 3 Xrotation Yrotation Zrotation
					End Site
					{
						OFFSET 0.000000 0.000000 0.000000
					}
				}
			}
		}
	}
}
MOTION
Frames: 10
Frame Time: 0.032
0.0 0.0 0.0 -140.854470 -5.107360 178.992388 14.652349 8.567984 0.978657 5.122643 4.252282 0.430253 1.859264 0.451424 1.976501 11.310844 7.850567 1.835562 13.700078 0.246848 -2.657275 -1.630209 2.260033 2.416656 1.281067 -28.578206 -13.813196 -32.161923 22.648438 -62.428428 -101.334763 46.981436 34.138259 22.518749 19.174187 0.364050 17.473728 -2.779203 8.509895 -54.952157 -8.347260 98.650997 -90.613968 -10.214953 3.416766 -22.734348 0.844122 -2.394915 -37.481472 -14.051093 -10.233522 64.458148 3.826504 1.859517 5.115860 20.363476 8.719690 -0.291247 0.401757 0.490313 -35.478851 7.339732 8.019123 82.486549 1.943474 -7.170099 3.087049 -0.273319 1.537206 1.311549 0.477822 -0.500260
0.0 0.0 0.0 -140.803325 -5.156523 178.965983 14.869585 8.595972 1.123118 5.301721 4.448703 0.588918 2.053059 0.614299 2.098086 11.468692 8.031381 2.008887 13.915560 0.429712 -2.502793 -1.545137 2.261100 2.638532 1.591478 -28.246080 -13.193648 -32.307027 22.680169 -62.319404 -100.871744 47.096347 34.113619 22.761018 19.666165 0.321058 17.631978 -2.576299 8.427177 -55.191309 -8.216035 99.201668 -90.136873 -10.450792 3.876753 -22.691478 0.705637 -2.395359 -37.304485 -13.998205 -10.103295 64.557992 3.938655 1.899211 5.291806 20.531014 8.909676 -0.221672 0.412770 0.563989 -35.279375 7.402235 8.146591 82.667323 2.262335 -7.121868 3.174111 -0.264418 1.541199 1.379125 0.494141 -0.465028
0.0 0.0 0.0 -141.023845 -5.124416 178.898418 14.608776 8.533356 1.145333 5.078550 4.414265 0.445519 1.811431 0.556673 1.994198 11.204837 7.958692 1.881341 13.693684 0.371813 -2.491446 -1.721330 2.262184 2.522487 1.419242 -28.208289 -13.388407 -32.353899 23.156353 -62.492549 -101.725832 47.430159 34.388527 22.560379 19.588530 0.260173 17.455710 -2.654395 8.594376 -55.743189 -8.711130 99.563804 -90.040717 -10.627451 4.376665 -22.927938 0.705909 -2.331973 -37.476743 -13.974978 -10.029699 64.414326 3.857824 2.023963 4.988127 20.425295 8.953550 -0.398313 0.416730 0.619113 -35.539598 7.416322 8.090853 82.549864 2.173695 -7.050831 2.998754 -0.282757 1.444961 1.196148 0.496421 -0.477331
0.0 0.0 0.0 -140.951868 -5.120420 178.890372 14.786272 8.633106 1.190561 5.234666 4.526247 0.399869 1.944095 0.677834 1.962928 11.325908 8.055815 1.858318 13.835275 0.502302 -2.466542 -1.601615 2.392097 2.557790 1.775969 -27.854949 -13.313315 -32.090961 23.140510 -62.424835 -101.214524 47.406550 33.766317 22.755378 19.568253 0.088141 17.573677 -2.559052 8.550459 -55.619275 -8.364022 99.297044 -89.702104 -10.699632 4.548505 -22.805776 0.734263 -2.197653 -37.394691 -13.874927 -9.980345 64.571878 4.049607 1.994090 5.032213 20.408646 8.941930 -0.275821 0.546782 0.668603 -35.483550 7.440882 8.027380 82.705203 2.409723 -7.070108 3.101210 -0.176267 1.414349 1.331492 0.627402 -0.465319
0.0 0.0 0.0 -141.033680 -5.104781 178.940916 14.487975 8.435959 1.103723 5.039481 4.345692 0.320378 1.710806 0.501696 1.883287 11.098493 7.856904 1.794467 13.614810 0.292718 -2.655022 -1.715399 2.295075 2.489508 1.330457 -28.152865 -13.691500 -32.337917 23.449926 -62.654363 -101.716031 47.513805 33.975711 22.635419 19.468966 0.007436 17.355613 -2.770055 8.480602 -56.041214 -9.222092 99.926562 -89.690916 -10.921011 4.833612 -23.096437 0.612831 -2.320870 -37.608866 -13.950914 -10.167764 64.445178 3.817426 1.947838 4.901199 20.247092 8.784660 -0.378704 0.445123 0.552984 -35.654380 7.362439 7.997586 82.525399 2.024356 -7.135514 3.010506 -0.277482 1.419333 1.206298 0.517265 -0.529921
0.0 0.0 0.0 -140.911666 -4.985327 179.097942 14.682299 8.513257 0.891359 5.068516 4.604779 0.672310 1.776412 0.725769 2.245447 11.090020 8.093346 2.121206 13.731943 0.490271 -2.734389 -1.703529 2.443603 2.204250 1.437590 -27.510373 -13.966828 -32.171222 23.766514 -62.862029 -102.234627 47.243664 34.692204 22.647760 19.597256 0.265989 17.316700 -2.468861 9.030095 -56.308404 -9.110478 100.258824 -89.377035 -10.910767 5.172614 -23.039012 0.751218 -2.379731 -37.557264 -13.689558 -10.119718 64.446387 3.863194 1.869195 4.848404 20.342863 8.712565 -0.382632 0.582722 0.415735 -35.732900 7.430761 8.286536 82.507558 2.229814 -7.262372 2.969398 -0.132999 1.674190 1.214653 0.668424 -0.461904
0.0 0.0 0.0 -140.868922 -4.988853 178.987716 14.766119 8.385040 1.046050 5.296136 4.548148 0.526517 1.936793 0.690032 2.122872 11.210546 8.048301 2.015831 13.948271 0.462366 -2.667779 -1.539413 2.374565 2.354358 1.853464 -27.436691 -13.549396 -32.177387 23.841858 -63.285562 -101.760120 47.261876 33.688433 22.966900 19.568267 -0.020116 17.518001 -2.544220 8.801427 -56.619864 -9.162374 101.340944 -88.658403 -11.422133 6.163451 -23.059759 0.511082 -2.227979 -37.415944 -13.829434 -10.045458 64.636573 3.911514 1.864321 4.942637 20.170355 8.792274 -0.217767 0.505528 0.509014 -35.601244 7.306908 8.199887 82.731486 2.348363 -7.281411 3.134181 -0.248391 1.541595 1.374329 0.588430 -0.480745
0.0 0.0 0.0 -140.884222 -4.930175 179.001527 14.802784 8.251355 1.041874 5.518255 4.369976 0.459493 2.011023 0.575097 2.079175 11.283050 7.896932 1.964790 14.006875 0.344100 -2.739188 -1.478880 2.249102 2.407549 2.742776 -27.422991 -13.006530 -31.736874 23.513360 -63.362517 -101.406528 47.087461 32.899317 23.024907 19.230252 -0.254161 17.735732 -2.856876 8.584622 -55.979254 -8.163728 101.618544 -88.496644 -11.635083 6.695504 -23.003821 0.418727 -2.119521 -37.476575 -13.985633 -10.007638 64.735044 3.829894 1.731925 4.958331 19.764395 8.592325 -0.149359 0.405649 0.497553 -35.592170 7.048069 8.041468 82.894256 2.291072 -7.394797 3.179666 -0.455430 1.520103 1.439509 0.473518 -0.491485
0.0 0.0 0.0 -140.913783 -4.925999 178.983728 14.643808 8.200620 0.927322 5.339911 4.481576 0.594983 1.911244 0.658673 2.209158 11.107413 7.969577 2.088082 13.949612 0.409791 -2.775643 -1.612248 2.298703 2.203200 2.212224 -27.361519 -13.538333 -32.072649 24.088464 -63.903503 -102.179609 47.113163 33.528644 23.011956 19.440117 0.014007 17.575187 -2.649410 8.971967 -56.694832 -9.314011 102.464408 -88.224297 -11.799913 7.160270 -23.336233 0.421685 -2.218435 -37.461518 -13.857484 -10.009886 64.604273 3.741284 1.755070 4.833004 19.914154 8.681675 -0.278713 0.427495 0.401312 -35.713123 7.186107 8.257373 82.741069 2.257508 -7.383201 3.060741 -0.389595 1.568935 1.307627 0.501121 -0.513110
0.0 0.0 0.0 -141.185570 -4.951052 178.808861 14.496969 8.112718 1.138498 5.130396 4.283598 0.412870 1.688864 0.495705 2.060102 10.868191 7.758266 1.941785 13.742873 0.277958 -2.602559 -1.784269 2.198544 2.340137 2.119757 -27.409887 -13.360583 -32.196224 24.197120 -63.648470 -102.364564 47.024548 33.328130 22.815854 19.183764 -0.200560 17.367153 -2.910047 8.977432 -56.928811 -9.538562 102.008117 -88.043604 -11.990576 7.647326 -23.519534 0.295934 -1.938488 -37.613401 -13.942039 -9.777237 64.568729 3.645492 1.944205 4.500573 19.640349 8.883983 -0.445647 0.326349 0.626445 -35.953344 7.050993 8.166698 82.738159 2.157160 -7.175682 2.875791 -0.517998 1.473686 1.140638 0.403580 -0.450481
